<svg width="16" height="16" viewBox="0 0 16 16" fill="none" xmlns="http://www.w3.org/2000/svg">
<path d="M14.0001 0H1.99987C0.897375 0.0025 0.0038125 0.896062 0 2V14C0 15.1 0.899812 16 1.99987 16H14.0001C15.1001 16 16 15.1 16 14V2C16 0.9 15.1002 0 14.0001 0Z" fill="#0900FF"/>
<path d="M3.38331 7.55013C3.66225 7.38725 9.65475 3.90481 9.79175 3.82413C9.92875 3.74444 9.93619 3.49937 9.78175 3.41069C9.62837 3.32256 9.33694 3.15512 9.22888 3.09087C9.15298 3.04915 9.06759 3.02778 8.98099 3.02883C8.89439 3.02988 8.80954 3.05332 8.73469 3.09687C8.658 3.14169 3.53775 6.11556 3.36687 6.21313C3.16112 6.33075 2.90856 6.33275 2.70438 6.21313L0 4.62619V5.97512C0.6575 6.36262 2.29488 7.32506 2.69138 7.55169C2.928 7.68619 3.15419 7.68319 3.38331 7.55013Z" fill="white"/>
<path d="M3.38331 10.1006C3.66225 9.93769 9.65475 6.45525 9.79175 6.37456C9.92875 6.29487 9.93619 6.04981 9.78175 5.96112C9.62837 5.873 9.33694 5.70556 9.22888 5.64131C9.15298 5.59959 9.06759 5.57821 8.98099 5.57927C8.89439 5.58032 8.80954 5.60376 8.73469 5.64731C8.658 5.69213 3.53775 8.66594 3.36687 8.76356C3.16112 8.88119 2.90856 8.88312 2.70438 8.76356L0 7.17662V8.52556C0.6575 8.91306 2.29488 9.8755 2.69138 10.1021C2.928 10.2366 3.15419 10.2336 3.38331 10.1006Z" fill="white"/>
<path d="M3.38331 12.8104C3.66225 12.6475 9.65475 9.16506 9.79175 9.08438C9.92875 9.00469 9.93619 8.75963 9.78175 8.67094C9.62837 8.58281 9.33694 8.41544 9.22888 8.35112C9.15298 8.3094 9.06759 8.28803 8.98099 8.28908C8.89439 8.29013 8.80954 8.31357 8.73469 8.35713C8.658 8.40194 3.53775 11.3758 3.36687 11.4734C3.16112 11.591 2.90856 11.593 2.70438 11.4734L0 9.88644V11.2354C0.6575 11.6229 2.29488 12.5854 2.69138 12.8119C2.928 12.9464 3.15419 12.9434 3.38331 12.8104Z" fill="white"/>
</svg>
